<?xml version="1.0" encoding="UTF-8"?>
<svg width="150px" height="120px" viewBox="0 0 95 77" version="1.1" xmlns="http://www.w3.org/2000/svg" xmlns:xlink="http://www.w3.org/1999/xlink">
    <!-- Generator: Sketch 39.1 (31720) - http://www.bohemiancoding.com/sketch -->
    <title>Page 1</title>
    <desc>Created with Sketch.</desc>
    <defs>
        <polygon id="path-1" points="0 76.3607595 94.9203323 76.3607595 94.9203323 0.193306962 0 0.193306962"></polygon>
    </defs>
    <g id="Page-1" stroke="none" stroke-width="1" fill="none" fill-rule="evenodd">
        <g>
            <polygon id="Fill-1" fill="#F7952B" points="35.9462563 10.9561456 50.8955285 48.2286139 71.4651329 37.5753861 56.5158608 0.302316456"></polygon>
            <polygon id="Fill-2" fill="#70C6D2" points="35.9465269 10.955875 22.0257199 48.1113972 43.6724921 37.2396092 56.5158307 0.302346519"></polygon>
            <polygon id="Fill-3" fill="#7F7443" points="35.946106 10.9559051 35.9434003 10.9628196 44.9792231 33.4811266 56.5163117 0.300572785"></polygon>
            <path d="M7.98640348,56.265193 L9.01898734e-05,76.1343228 L1.30784335,76.1343228 L3.84007437,69.761807 L13.3572104,69.761807 L15.8617832,76.1343228 L17.169837,76.1343228 L9.32211551,56.265193 L7.98640348,56.265193 Z M8.65440981,57.461712 L8.7100269,57.461712 L12.9678908,68.7041804 L4.22969462,68.7041804 L8.65440981,57.461712 Z" id="Fill-4" fill="#F7952B"></path>
            <g id="Group-16" transform="translate(0.000000, 0.107326)">
                <path d="M30.5547658,76.0269367 L29.4971392,76.0269367 L29.4971392,72.9658924 L29.4418228,72.9658924 C29.2560316,73.5040253 28.9917753,73.9814304 28.6484525,74.3990095 C28.3051297,74.8165886 27.9061899,75.1737405 27.4519335,75.4701646 C26.9970759,75.7674905 26.5010316,75.9899589 25.9628987,76.1381709 C25.4247658,76.2863829 24.8779146,76.3606392 24.321443,76.3606392 C23.4862848,76.3606392 22.7767911,76.2587247 22.1923608,76.0548956 C21.6079304,75.8507658 21.1302247,75.5816994 20.7592437,75.2476962 C20.387962,74.9139937 20.0957468,74.5382025 19.8828987,74.1206234 C19.6691487,73.7033449 19.5161266,73.281557 19.4238323,72.8543576 C19.3306361,72.4277595 19.2747184,72.0152911 19.2566804,71.6160506 C19.2377405,71.2174114 19.2287215,70.8695791 19.2287215,70.5725538 L19.2287215,61.7234241 L20.2863481,61.7234241 L20.2863481,70.7673639 C20.2863481,71.1386456 20.3140063,71.5883924 20.3696234,72.1172057 C20.4255411,72.6457184 20.5875823,73.156193 20.8566487,73.6477278 C21.1254146,74.1395633 21.5288639,74.5616519 22.0669968,74.9139937 C22.6051297,75.2666361 23.365731,75.4425063 24.3491013,75.4425063 C25.1466804,75.4425063 25.8657943,75.2939937 26.5058418,74.997269 C27.1458892,74.7008449 27.6885316,74.2877753 28.133769,73.758962 C28.5790063,73.2301487 28.9172184,72.5997215 29.149307,71.8664778 C29.3813956,71.1341361 29.4971392,70.3317468 29.4971392,69.4593101 L29.4971392,61.7234241 L30.5547658,61.7234241 L30.5547658,76.0269367 L30.5547658,76.0269367 Z" id="Fill-5" fill="#F7952B"></path>
                <path d="M35.8419668,64.895913 L35.9252421,64.895913 C36.0551155,64.432337 36.291413,63.9961187 36.6350364,63.5878592 C36.9780585,63.1799003 37.3956377,62.8272579 37.8874731,62.5305332 C38.3787073,62.2338085 38.9261598,62.0065301 39.5292294,61.8483972 C40.1316978,61.6911661 40.7576155,61.6214193 41.4075839,61.6400585 L41.4075839,62.6970839 C40.8508117,62.6234288 40.2152737,62.6790459 39.5012706,62.8642358 C38.7869668,63.0500269 38.1051313,63.4582864 37.4560649,64.0887136 C37.1960174,64.3670997 36.9690396,64.6361661 36.7742294,64.895913 C36.5794193,65.1556598 36.4167769,65.4430649 36.2869035,65.7584288 C36.1573307,66.0740934 36.0551155,66.4264351 35.9811598,66.8160554 C35.9069035,67.2056756 35.8603054,67.6692516 35.8419668,68.2073845 L35.8419668,76.0268465 L34.7843402,76.0268465 L34.7843402,61.7233339 L35.8419668,61.7233339 L35.8419668,64.895913 Z" id="Fill-7" fill="#F7952B"></path>
                <path d="M53.9856139,68.096 C53.9483354,67.3167595 53.8181614,66.579307 53.5950918,65.8836424 C53.3717215,65.1879778 53.0416266,64.5755886 52.6045063,64.0470759 C52.1673861,63.5182627 51.6373703,63.0964747 51.0141582,62.7808101 C50.3906456,62.4654462 49.6793481,62.3076139 48.8796646,62.3076139 C48.0240633,62.3076139 47.2703766,62.4702563 46.6195063,62.7946392 C45.9680348,63.1196234 45.4193797,63.5459209 44.9735411,64.0747342 C44.5268006,64.6035475 44.1828766,65.2207468 43.9411677,65.9254304 C43.6991582,66.6307152 43.5500443,67.354038 43.4947278,68.096 L53.9856139,68.096 Z M43.466769,69.0144335 L43.466769,69.1812848 C43.466769,70.0161424 43.5780032,70.8140222 43.8013734,71.5743228 C44.024443,72.3355253 44.354538,73.003231 44.7919589,73.5780411 C45.2290791,74.1531519 45.7777342,74.6077089 46.4382247,74.9414114 C47.0984146,75.2757152 47.8659304,75.4422658 48.7401709,75.4422658 C50.1723861,75.4422658 51.3072753,75.0667753 52.1442373,74.3154937 C52.9811994,73.5639114 53.5578133,72.5207152 53.8743797,71.1847025 L54.9320063,71.1847025 C54.6163418,72.8544177 53.9342057,74.1348133 52.8865,75.025288 C51.838193,75.9157627 50.4513734,76.3606994 48.7263418,76.3606994 C47.6687152,76.3606994 46.7457722,76.1703987 45.957212,75.7903987 C45.1686519,75.4103987 44.5102658,74.8909051 43.9817532,74.2319177 C43.4529399,73.5738323 43.0582089,72.7945918 42.7987627,71.8944968 C42.5390158,70.9950032 42.4091424,70.0257627 42.4091424,68.9864747 C42.4091424,67.9847658 42.5438259,67.0245443 42.8128924,66.1064114 C43.0816582,65.1879778 43.484807,64.3810791 44.0232405,63.6851139 C44.5610728,62.98975 45.2338892,62.4329778 46.040788,62.0153987 C46.8479873,61.5981203 47.798288,61.3891804 48.893193,61.3891804 C49.8952025,61.3891804 50.7808671,61.5752722 51.5504873,61.9459525 C52.3204082,62.3172342 52.9649652,62.8225981 53.4847595,63.4626456 C54.0039525,64.102693 54.3983829,64.8449557 54.6674494,65.6888323 C54.9362152,66.5333101 55.0708987,67.4379146 55.0708987,68.4020443 C55.0708987,68.4952405 55.0663892,68.6016646 55.0570696,68.7222184 C55.0474494,68.8427722 55.0432405,68.9404778 55.0432405,69.0144335 L43.466769,69.0144335 Z" id="Fill-9" fill="#F7952B"></path>
                <mask id="mask-2" fill="white">
                    <use xlink:href="#path-1"></use>
                </mask>
                <g id="Clip-12"></g>
                <polygon id="Fill-11" fill="#F7952B" mask="url(#mask-2)" points="58.326693 76.027057 59.3843196 76.027057 59.3843196 56.1579272 58.326693 56.1579272"></polygon>
                <path d="M63.558307,76.0267563 L64.6159335,76.0267563 L64.6159335,61.7232437 L63.558307,61.7232437 L63.558307,76.0267563 Z M63.558307,59.0241614 L64.6159335,59.0241614 L64.6159335,56.1579272 L63.558307,56.1579272 L63.558307,59.0241614 Z" id="Fill-13" fill="#F7952B" mask="url(#mask-2)"></path>
                <path d="M80.42225,76.0269367 L79.3646234,76.0269367 L79.3646234,72.9658924 L79.309307,72.9658924 C79.1235158,73.5040253 78.8592595,73.9814304 78.5159367,74.3990095 C78.1726139,74.8165886 77.7736741,75.1737405 77.3194177,75.4701646 C76.8645601,75.7674905 76.3685158,75.9899589 75.8306835,76.1381709 C75.2925506,76.2863829 74.7453987,76.3606392 74.1889272,76.3606392 C73.353769,76.3606392 72.6442753,76.2587247 72.0601456,76.0548956 C71.4754146,75.8507658 70.9977089,75.5816994 70.6267278,75.2476962 C70.2554462,74.9139937 69.963231,74.5382025 69.7503829,74.1206234 C69.5366329,73.7033449 69.3836108,73.281557 69.2913165,72.8543576 C69.1981203,72.4277595 69.1422025,72.0152911 69.1241646,71.6160506 C69.1052247,71.2174114 69.0962057,70.8695791 69.0962057,70.5725538 L69.0962057,61.7234241 L70.1538323,61.7234241 L70.1538323,70.7673639 C70.1538323,71.1386456 70.1817911,71.5883924 70.2371076,72.1172057 C70.2930253,72.6457184 70.4550665,73.156193 70.7241329,73.6477278 C70.9928987,74.1395633 71.3966487,74.5616519 71.9347816,74.9139937 C72.4726139,75.2666361 73.2332152,75.4425063 74.2165854,75.4425063 C75.0141646,75.4425063 75.7332785,75.2939937 76.3733259,74.997269 C77.0133734,74.7008449 77.5560158,74.2877753 78.0012532,73.758962 C78.4464905,73.2301487 78.7847025,72.5997215 79.0167911,71.8664778 C79.2488797,71.1341361 79.3646234,70.3317468 79.3646234,69.4593101 L79.3646234,61.7234241 L80.42225,61.7234241 L80.42225,76.0269367 Z" id="Fill-14" fill="#F7952B" mask="url(#mask-2)"></path>
                <path d="M84.5961472,71.2684889 C84.633125,71.9361946 84.781337,72.5254351 85.0416851,73.0353085 C85.3011313,73.5457832 85.6399446,73.9814003 86.0569225,74.3433623 C86.4745016,74.7053244 86.9615269,74.9792009 87.5182991,75.1643908 C88.0744699,75.3498813 88.6772389,75.4424763 89.3269066,75.4424763 C89.7904826,75.4424763 90.2871282,75.4006883 90.8159415,75.317413 C91.3444541,75.233837 91.8356883,75.0808149 92.2908465,74.8580459 C92.7448022,74.6355775 93.1205934,74.3250237 93.4176187,73.9260839 C93.7140427,73.5274446 93.862856,73.0214794 93.862856,72.4093908 C93.862856,71.6121123 93.6217484,71.0087421 93.1395332,70.6004826 C92.6567168,70.1925237 92.0494383,69.8768592 91.3164953,69.6543908 C90.5835522,69.4319225 89.7952927,69.2509415 88.9511155,69.1117484 C88.1069383,68.9725554 87.3186788,68.7639161 86.5857358,68.4855301 C85.8527927,68.207144 85.2452136,67.8133149 84.7632991,67.3031408 C84.2804826,66.7926661 84.039375,66.0461946 84.039375,65.0625237 C84.039375,64.3578402 84.1972073,63.7689003 84.5128718,63.2957041 C84.8282358,62.8225079 85.2313845,62.4467168 85.7232199,62.1683307 C86.2147547,61.8905459 86.7670174,61.6912263 87.379106,61.5703718 C87.9911946,61.449818 88.6032832,61.3893908 89.2156725,61.3893908 C89.9573339,61.3893908 90.6529984,61.4729668 91.3029668,61.6401187 C91.9520332,61.8066693 92.5133149,62.0760364 92.9862104,62.4467168 C93.4597073,62.8182991 93.8303877,63.2914953 94.0994541,63.8660047 C94.3682199,64.4414161 94.5029035,65.1370807 94.5029035,65.9529984 L93.4455775,65.9529984 C93.4455775,65.303932 93.3385522,64.7474604 93.1254035,64.2835839 C92.9119541,63.8200079 92.6149288,63.4445174 92.2349288,63.1565111 C91.8546282,62.869106 91.4045807,62.6556566 90.8853877,62.5164636 C90.3655934,62.3772706 89.8091218,62.3075237 89.2156725,62.3075237 C88.7331566,62.3075237 88.2461313,62.3544225 87.7545965,62.4467168 C87.2627611,62.539913 86.8223339,62.697144 86.4327136,62.919913 C86.043394,63.142682 85.7232199,63.4303877 85.4727927,63.7827294 C85.2223655,64.1353718 85.0970016,64.5616693 85.0970016,65.0625237 C85.0970016,65.6379351 85.2361946,66.1018117 85.5145807,66.4541535 C85.7926661,66.8067959 86.158837,67.0899921 86.6136946,67.3031408 C87.0682516,67.5165902 87.578125,67.6882516 88.1442168,67.8175237 C88.7100079,67.9476978 89.2803085,68.0778718 89.8557199,68.207144 C90.5607041,68.337318 91.2235997,68.4903402 91.8453085,68.6665111 C92.4667168,68.8429826 93.0045491,69.0837896 93.4597073,69.3898339 C93.913663,69.6961788 94.2708149,70.0903085 94.5308623,70.5728244 C94.7903085,71.0553402 94.9204826,71.6674288 94.9204826,72.4093908 C94.9204826,73.1886313 94.7440111,73.8286788 94.3916693,74.3295332 C94.0390269,74.8303877 93.5937896,75.233837 93.0559573,75.5398813 C92.5178244,75.8462263 91.9192642,76.059375 91.2608782,76.1799288 C90.6024921,76.3004826 89.9573339,76.3609098 89.3269066,76.3609098 C88.5103877,76.3609098 87.7545965,76.2538845 87.058932,76.0407358 C86.3632674,75.8278877 85.7556883,75.5029035 85.2361946,75.0669858 C84.7164003,74.6313687 84.3084415,74.0977453 84.0120174,73.4667168 C83.7146915,72.8362896 83.5571598,72.1030459 83.5388212,71.2684889 L84.5961472,71.2684889 Z" id="Fill-15" fill="#F7952B" mask="url(#mask-2)"></path>
            </g>
        </g>
    </g>
</svg>